<?xml version="1.0" encoding="UTF-8"?>
<svg id="Layer_2" data-name="Layer 2" xmlns="http://www.w3.org/2000/svg" viewBox="0 0 438.6 128.21">
  <defs>
    <style>
      .cls-1 {
        fill: #fef8f9;
      }
    </style>
  </defs>
  <g id="Layer_1-2" data-name="Layer 1">
    <g>
      <g>
        <path class="cls-1" d="M72.9,60.01v49.79c0,.93.76,1.69,1.69,1.69h17.87c.93,0,1.69.76,1.69,1.69v11.63c0,.93-.76,1.69-1.69,1.69h-35.59c-.93,0-1.69-.76-1.69-1.69V60.01c0-.93.76-1.69,1.69-1.69h14.35c.93,0,1.69.76,1.69,1.69Z"/>
        <g>
          <path class="cls-1" d="M79.54,87.06c.16-.29,4.16-2.93,5.18-4.05,11.62-12.77,7.52-34.08-8.07-41.42-25.33-11.93-49.06,17.75-32.88,39.38,1.07,1.44,7.35,6.58,7.21,7.27-.31,1.6-3.33-.94-3.73-1.25-17.22-13.53-11.57-41.75,9.1-48.35,24.78-7.91,45.88,18.55,32.88,40.88-.95,1.62-7.66,9.44-9.01,9.47-.44.01-1.04-1.3-.68-1.93Z"/>
          <path class="cls-1" d="M65.98.03v30.49c0,.1-2,.1-2,0V.03c0-.1,1.64.07,2,0Z"/>
          <rect class="cls-1" x="83.2" y="27.89" width="30.04" height="1.75" transform="translate(8.42 77.88) rotate(-45)"/>
          <rect class="cls-1" y="62.51" width="30.49" height="1.5"/>
          <rect class="cls-1" x="97.96" y="62.51" width="30.49" height="1.5"/>
          <path class="cls-1" d="M24.82,21.7c5.44,5.44,10.5,11.33,16.17,16.57.8.41.12,1.17-.26,1.25-1.43.27-17.91-18.51-21.08-20.13-.87-.99-.6-2.15.88-1.65.28.09,3.69,3.37,4.29,3.97Z"/>
          <path class="cls-1" d="M34.48,48.53c.05.06.05,1.43,0,1.48-.76.79-18.51-5.06-21.19-5.45l-.3-1.54,21.49,5.51Z"/>
          <path class="cls-1" d="M43.44,11.57c.42,2.6,8.83,19.68,8.04,20.45-.16.16-1.55.1-1.73-.52l-7.43-17.75c-.06-.14-.1-.29-.12-.45l-.21-1.77,1.45.04Z"/>
          <path class="cls-1" d="M86.97,11.53c-1.23,2.4-7.61,20.93-8.74,20.98-.94.04-.67-1.84-.54-2.52.47-2.31,2.98-7.48,4.05-9.95.8-1.85,2.38-6.41,3.29-7.71.61-.86.88-.93,1.94-.8Z"/>
          <path class="cls-1" d="M115.96,43.02c.05.06.25,1.56-.33,1.51-6.33,1.27-12.87,4.07-19.14,5.26-1.67.32-1.75.67-2.51-1.03,2.76-.32,21.2-6.56,21.99-5.74Z"/>
        </g>
      </g>
      <path class="cls-1" d="M116.5,80.11c.93,0,1.69.76,1.69,1.69v24.44c0,5.73,2.77,8.59,8.32,8.59s8.32-2.86,8.32-8.59v-24.44c0-.93.76-1.69,1.69-1.69h12.99c.93,0,1.69.76,1.69,1.69v27.6c0,6.27-2.07,10.97-6.19,14.1-4.13,3.13-10.29,4.7-18.49,4.7s-14.36-1.57-18.49-4.7c-4.13-3.13-6.19-7.83-6.19-14.1v-27.6c0-.93.76-1.69,1.69-1.69h12.99Z"/>
      <path class="cls-1" d="M178.84,100.22l-15.31-17.3c-.96-1.09-.19-2.81,1.26-2.81h16.8c.5,0,.98.22,1.3.61l6.17,7.43c.67.81,1.91.81,2.58.01l6.33-7.46c.32-.38.79-.6,1.29-.6h16.75c1.46,0,2.23,1.74,1.25,2.82l-15.66,17.28c-.59.65-.58,1.64.01,2.28l19.57,21.17c1,1.08.23,2.83-1.24,2.83h-17.07c-.49,0-.96-.21-1.28-.59l-10.07-11.68c-.67-.78-1.88-.78-2.55,0l-10.15,11.69c-.32.37-.79.58-1.27.58h-16.99c-1.47,0-2.24-1.75-1.24-2.83l19.51-21.18c.59-.64.6-1.61.02-2.26Z"/>
      <path class="cls-1" d="M243.1,106.06c-1,0-1.78.87-1.69,1.86.55,5.81,3.84,8.72,9.86,8.72,3.24,0,5.76-1.2,7.55-3.61.33-.44.83-.73,1.38-.73h12.56c1.19,0,2.02,1.21,1.58,2.32-3.62,9.06-11.34,13.59-23.15,13.59-3.92,0-7.5-.59-10.76-1.76-3.25-1.18-6.04-2.85-8.36-5.02-2.32-2.17-4.11-4.76-5.38-7.77-1.27-3.01-1.9-6.39-1.9-10.13s.6-7.34,1.81-10.44c1.21-3.1,2.92-5.74,5.15-7.91,2.23-2.17,4.93-3.84,8.09-5.02,3.16-1.18,6.74-1.76,10.71-1.76s7.44.59,10.58,1.76c3.13,1.18,5.79,2.88,7.96,5.11,2.17,2.23,3.83,4.96,4.97,8.18,1.14,3.23,1.72,6.86,1.72,10.89v1.72h-32.67ZM258.09,96.57c1.27,0,2.08-1.36,1.5-2.49s-1.42-2.18-2.44-3.03c-1.69-1.39-3.74-2.08-6.15-2.08-2.53,0-4.6.66-6.19,1.99-1.04.86-1.82,1.95-2.37,3.26-.46,1.11.36,2.34,1.57,2.34h14.08Z"/>
      <path class="cls-1" d="M286.77,80.11h12.99c.93,0,1.69.76,1.69,1.69h0c0,1.47,1.72,2.2,2.83,1.24,1.31-1.14,2.62-1.98,3.95-2.52,2.29-.93,4.97-1.4,8.05-1.4,3.25,0,6.04.53,8.36,1.58,2.32,1.06,4.29,2.55,5.92,4.48,1.33,1.57,2.23,3.32,2.71,5.24.48,1.93.72,4.13.72,6.6v27.79c0,.93-.76,1.69-1.69,1.69h-12.99c-.93,0-1.69-.76-1.69-1.69v-21.73c0-2.29-.17-4.14-.5-5.56-.33-1.42-.92-2.55-1.76-3.39-.72-.72-1.54-1.23-2.44-1.54-.9-.3-1.87-.45-2.89-.45-2.77,0-4.9.83-6.37,2.49-1.48,1.66-2.21,4.02-2.21,7.1v23.08c0,.93-.76,1.69-1.69,1.69h-12.99c-.93,0-1.69-.76-1.69-1.69v-43c0-.93.76-1.69,1.69-1.69Z"/>
      <path class="cls-1" d="M380.1,92.24c0,1.25-1.31,2.01-2.44,1.46-2.04-.98-4.09-1.48-6.15-1.48-1.57,0-3.03.27-4.38.81-1.36.54-2.55,1.31-3.57,2.31-1.03.99-1.82,2.17-2.4,3.53-.57,1.36-.86,2.88-.86,4.57s.29,3.12.86,4.48c.57,1.36,1.36,2.53,2.35,3.53.99.99,2.18,1.76,3.57,2.31,1.39.54,2.86.81,4.43.81,2.14,0,4.19-.51,6.12-1.54,1.12-.59,2.46.22,2.46,1.48v9.68c0,.69-.42,1.32-1.06,1.58-3.65,1.45-7.13,2.18-10.42,2.18s-6.59-.57-9.63-1.72c-3.04-1.14-5.73-2.79-8.05-4.93-2.32-2.14-4.17-4.7-5.56-7.68-1.39-2.98-2.08-6.31-2.08-9.99s.66-7.04,1.99-10.08c1.33-3.04,3.13-5.66,5.42-7.87,2.29-2.2,5.02-3.92,8.18-5.15,3.16-1.23,6.55-1.85,10.17-1.85s6.95.69,10.05,2.07c.6.27.98.89.98,1.55v9.96Z"/>
      <path class="cls-1" d="M405.92,106.06c-1,0-1.78.87-1.69,1.86.55,5.81,3.84,8.72,9.86,8.72,3.24,0,5.76-1.2,7.55-3.61.33-.44.83-.73,1.38-.73h12.56c1.19,0,2.02,1.21,1.58,2.32-3.62,9.06-11.34,13.59-23.15,13.59-3.92,0-7.5-.59-10.76-1.76-3.25-1.18-6.04-2.85-8.36-5.02-2.32-2.17-4.11-4.76-5.38-7.77-1.27-3.01-1.9-6.39-1.9-10.13s.6-7.34,1.81-10.44c1.21-3.1,2.92-5.74,5.15-7.91,2.23-2.17,4.93-3.84,8.09-5.02,3.16-1.18,6.74-1.76,10.71-1.76s7.44.59,10.58,1.76c3.13,1.18,5.79,2.88,7.96,5.11,2.17,2.23,3.83,4.96,4.97,8.18,1.14,3.23,1.72,6.86,1.72,10.89v1.72h-32.67ZM420.91,96.57c1.27,0,2.08-1.36,1.5-2.49s-1.42-2.18-2.44-3.03c-1.69-1.39-3.74-2.08-6.15-2.08-2.53,0-4.6.66-6.19,1.99-1.04.86-1.82,1.95-2.37,3.26-.46,1.11.36,2.34,1.57,2.34h14.08Z"/>
    </g>
  </g>
</svg>